<svg width="40" height="40" viewBox="0 0 40 40" fill="none" xmlns="http://www.w3.org/2000/svg">
<path d="M19.9997 3.33301C10.7997 3.33301 3.33301 10.7997 3.33301 19.9997C3.33301 29.1997 10.7997 36.6663 19.9997 36.6663C29.1997 36.6663 36.6663 29.1997 36.6663 19.9997C36.6663 10.7997 29.1997 3.33301 19.9997 3.33301ZM26.7163 20.883L21.7163 25.883C21.4663 26.133 21.1497 26.2497 20.833 26.2497C20.5163 26.2497 20.1997 26.133 19.9497 25.883C19.4663 25.3997 19.4663 24.5997 19.9497 24.1163L22.8163 21.2497H14.1663C13.483 21.2497 12.9163 20.683 12.9163 19.9997C12.9163 19.3163 13.483 18.7497 14.1663 18.7497H22.8163L19.9497 15.883C19.4663 15.3997 19.4663 14.5997 19.9497 14.1163C20.433 13.633 21.233 13.633 21.7163 14.1163L26.7163 19.1163C27.1997 19.5997 27.1997 20.3997 26.7163 20.883Z" fill="#1B1B1B"/>
</svg>
