<svg version="1.1" id="Layer_1" xmlns="http://www.w3.org/2000/svg" xmlns:xlink="http://www.w3.org/1999/xlink" x="0px" y="0px"
	 width="100%" viewBox="0 0 500 500" enable-background="new 0 0 500 500" xml:space="preserve">
<path fill="#000000" opacity="1.000000" stroke="none" 
	d="
M267.000000,501.000000 
	C178.000015,501.000000 89.500046,501.000000 1.000047,501.000000 
	C1.000032,334.333405 1.000032,167.666794 1.000016,1.000137 
	C167.666565,1.000091 334.333130,1.000091 500.999756,1.000046 
	C500.999847,167.666519 500.999847,334.333038 500.999939,500.999786 
	C423.166656,501.000000 345.333344,501.000000 267.000000,501.000000 
M88.965019,289.240906 
	C94.752197,289.240906 100.539383,289.240906 106.326561,289.240906 
	C106.384377,290.000153 106.442184,290.759399 106.500000,291.518646 
	C105.158951,291.930573 103.833588,292.621887 102.473709,292.698181 
	C99.317207,292.875305 96.126244,292.557159 92.985069,292.838928 
	C91.395248,292.981567 89.883163,293.990692 88.335922,294.608032 
	C89.949844,295.308044 91.522751,296.463531 93.186226,296.613312 
	C96.657761,296.925934 100.177216,296.692596 103.676842,296.710846 
	C107.697075,296.731781 110.802567,295.285095 110.706146,290.834106 
	C110.612968,286.532440 107.645432,284.916870 103.572319,284.945038 
	C97.406433,284.987701 91.234680,285.099548 85.076897,284.871704 
	C83.054779,284.796875 81.068321,283.758270 79.065559,283.160400 
	C79.184814,282.646515 79.304062,282.132599 79.423317,281.618683 
	C87.221016,281.618683 95.019028,281.661133 102.816307,281.604034 
	C108.157219,281.564880 111.108681,279.347076 110.744873,275.469849 
	C110.308731,270.821686 107.131416,269.665222 102.942924,269.721771 
	C94.445152,269.836578 85.942886,269.849335 77.446800,269.683228 
	C75.534851,269.645874 73.640617,268.702332 71.738228,268.175934 
	C71.872017,267.656921 72.005814,267.137909 72.139603,266.618896 
	C73.774712,266.618896 75.409813,266.618927 77.044922,266.618896 
	C85.710907,266.618835 94.385162,266.826538 103.037415,266.481842 
	C105.384819,266.388306 108.487793,265.249664 109.811066,263.504333 
	C112.836807,259.513519 109.253677,254.492828 103.461739,254.424927 
	C92.464104,254.295959 81.463745,254.414413 70.464966,254.351776 
	C68.868790,254.342697 67.275085,253.900635 65.680237,253.658936 
	C65.674553,253.082642 65.668869,252.506363 65.663185,251.930084 
	C67.439583,251.635208 69.214256,251.097595 70.992653,251.085007 
	C82.157883,251.005920 93.323944,251.036499 104.489723,251.046814 
	C108.328865,251.050354 110.548668,248.997360 110.712189,245.349045 
	C110.867561,241.882874 108.678696,239.815353 105.275696,239.299423 
	C103.642113,239.051743 101.954865,239.114639 100.291801,239.112076 
	C90.682327,239.097229 81.072815,239.104813 71.463310,239.104813 
	C71.344910,238.600204 71.226509,238.095581 71.108109,237.590973 
	C73.106850,237.026581 75.096039,236.018204 77.105980,235.975006 
	C85.601395,235.792435 94.103058,235.917908 102.602295,235.889343 
	C108.007645,235.871170 110.842567,233.807541 110.794395,230.028000 
	C110.745148,226.165375 107.963470,224.123520 102.639847,224.109909 
	C94.916992,224.090149 87.194046,224.104843 79.471138,224.104843 
	C79.377914,223.557663 79.284691,223.010498 79.191467,222.463318 
	C81.215416,221.941391 83.227150,221.033768 85.265579,220.969223 
	C91.592155,220.768906 97.929718,220.949554 104.261360,220.862167 
	C108.173691,220.808167 110.719734,218.769867 110.718887,214.789200 
	C110.718025,210.753464 108.188782,208.894165 104.185722,208.945831 
	C100.611382,208.991974 97.035965,208.955521 93.461029,208.955521 
	C93.343636,208.493256 93.226242,208.030991 93.108849,207.568726 
	C94.772560,206.909210 96.391594,205.875290 98.109535,205.670334 
	C101.401230,205.277603 104.759308,205.467758 108.067093,205.166412 
	C108.988823,205.082428 109.830795,204.122879 110.709351,203.565002 
	C109.940781,202.913040 109.193382,201.729767 108.400085,201.698135 
	C104.254898,201.532883 100.082428,201.445724 95.949760,201.747086 
	C91.999992,202.035126 89.877632,204.693985 88.705498,208.345276 
	C87.703957,211.465118 88.249817,213.184814 91.936539,213.068619 
	C95.432785,212.958435 98.947815,212.874969 102.428604,213.131882 
	C103.769798,213.230865 105.039352,214.300720 106.341545,214.928207 
	C104.979073,215.537186 103.631889,216.628357 102.251495,216.672134 
	C96.091408,216.867477 89.921310,216.715759 83.755882,216.784622 
	C79.539192,216.831696 76.403091,218.650818 74.852562,222.745636 
	C73.264336,226.940048 74.061424,228.190948 78.569321,228.228424 
	C86.234856,228.292145 93.901810,228.200058 101.566956,228.283936 
	C103.180832,228.301590 104.789490,228.796112 106.400551,229.070908 
	C106.424156,229.614548 106.447762,230.158203 106.471375,230.701843 
	C104.937561,231.053009 103.407166,231.689560 101.869377,231.707916 
	C93.371239,231.809387 84.871162,231.789307 76.372040,231.749741 
	C72.380203,231.731171 69.218605,233.101303 67.288620,236.748642 
	C64.804001,241.444168 66.013779,243.576706 71.297264,243.603867 
	C81.296211,243.655273 91.295723,243.595963 101.294731,243.641281 
	C102.980606,243.648911 104.665154,243.950668 106.350311,244.116516 
	C106.427879,244.688843 106.505440,245.261169 106.583000,245.833481 
	C105.138130,246.207153 103.696320,246.891006 102.247902,246.905273 
	C90.916954,247.016937 79.582802,246.884094 68.253731,247.072327 
	C62.675182,247.164993 59.481487,251.564377 62.275414,255.514862 
	C63.604649,257.394348 66.969612,258.669189 69.459190,258.748474 
	C80.280701,259.093109 91.119675,258.862213 101.951675,258.935059 
	C103.543488,258.945740 105.131882,259.465149 106.721863,259.749176 
	C106.726410,260.296265 106.730965,260.843353 106.735512,261.390442 
	C105.133675,261.721527 103.534134,262.325775 101.929611,262.339264 
	C91.597824,262.426331 81.264786,262.350464 70.932495,262.399292 
	C66.117119,262.422028 64.954285,264.304779 67.115669,268.562103 
	C68.930771,272.137329 71.875267,273.922699 75.970375,273.916016 
	C84.634850,273.901886 93.300148,273.952515 101.963440,274.085815 
	C103.505722,274.109558 105.039902,274.660614 106.577820,274.968170 
	C106.558594,275.507050 106.539360,276.045929 106.520134,276.584808 
	C104.881485,276.851196 103.245331,277.328217 101.603767,277.347595 
	C94.438667,277.432343 87.268875,277.268127 80.107925,277.460449 
	C78.157196,277.512848 76.231384,278.493195 74.294136,279.047668 
	C75.025429,281.345642 75.272934,283.979980 76.588303,285.871857 
	C79.362297,289.861664 83.978561,288.915405 88.965019,289.240906 
M283.500061,204.833313 
	C276.083221,204.833313 268.666412,204.833313 261.334015,204.833313 
	C261.334015,209.305695 261.334015,213.197052 261.334015,216.880768 
	C307.369537,216.880768 353.064087,216.880768 398.680847,216.880768 
	C398.680847,212.694214 398.680847,208.802826 398.680847,204.833313 
	C360.393341,204.833313 322.446716,204.833313 283.500061,204.833313 
M187.500076,277.833344 
	C165.419998,277.833344 143.339905,277.833344 121.208069,277.833344 
	C121.208069,281.487976 121.208069,284.576660 121.208069,287.672333 
	C164.591080,287.672333 207.762268,287.672333 250.703918,287.672333 
	C250.703918,284.204926 250.703918,281.105530 250.703918,277.833344 
	C229.772690,277.833344 209.136398,277.833344 187.500076,277.833344 
M169.652557,236.017563 
	C166.776321,228.411972 163.685211,220.877762 161.123917,213.167542 
	C160.016006,209.832428 158.381882,208.672211 155.042191,209.095840 
	C153.005859,209.354156 150.910049,209.143509 148.240173,209.143509 
	C153.865997,223.804047 159.394714,237.664215 164.433838,251.700134 
	C165.818085,255.555786 168.279831,254.989624 171.028412,255.025482 
	C173.827744,255.062012 176.228424,255.443634 177.588638,251.645065 
	C182.287018,238.524399 187.488373,225.584061 192.465103,212.562408 
	C192.844711,211.569138 192.965134,210.476791 193.272125,209.143509 
	C191.719559,209.143509 190.535431,209.315384 189.418442,209.114273 
	C184.090057,208.154892 181.506363,210.344986 179.951614,215.574341 
	C177.632172,223.375748 174.380386,230.899963 171.213470,239.376694 
	C170.476517,237.894485 170.203842,237.346085 169.652557,236.017563 
M240.564957,209.449860 
	C237.280060,215.398514 233.995148,221.347168 230.395248,227.866241 
	C227.834442,223.236801 225.102127,219.228607 223.325089,214.834122 
	C221.380753,210.025940 218.342773,208.299301 213.419174,209.104477 
	C212.033691,209.331055 210.579727,209.139069 208.706192,209.139069 
	C214.781433,224.570831 229.329453,236.265411 224.590042,254.796021 
	C228.785248,254.796021 232.029816,254.796021 235.729462,254.796021 
	C235.729462,252.302811 235.948303,249.983444 235.687515,247.719315 
	C234.968643,241.478149 236.775360,236.089767 240.090637,230.817429 
	C244.385574,223.987045 248.132523,216.812103 252.450104,209.195023 
	C248.217041,209.195023 244.783401,209.195023 240.564957,209.449860 
M321.614044,232.915009 
	C312.104950,238.065765 308.389923,248.168472 312.464386,257.796753 
	C316.182861,266.583710 326.811768,270.929138 336.893555,267.784149 
	C346.054840,264.926300 351.088348,255.719513 349.061768,245.527313 
	C346.805084,234.178177 335.614319,228.757538 321.614044,232.915009 
M366.861511,245.505127 
	C366.861511,252.918304 366.861511,260.331482 366.861511,267.895721 
	C372.879822,267.895721 378.364166,268.214111 383.797729,267.824371 
	C392.949982,267.167877 399.400879,260.601013 400.025208,251.890671 
	C400.738892,241.933212 395.985901,234.314651 386.610626,232.726105 
	C380.246521,231.647781 373.551880,232.520157 366.861511,232.520157 
	C366.861511,236.542480 366.861511,240.524597 366.861511,245.505127 
M275.716187,231.129074 
	C274.089203,231.440552 272.417206,231.605148 270.842773,232.087936 
	C262.248016,234.723434 257.356140,243.225647 258.738495,252.986267 
	C260.075836,262.428955 267.154938,268.605255 276.886597,268.819855 
	C286.273865,269.026855 293.749817,263.196899 295.438263,254.352768 
	C288.960052,253.776947 288.960052,253.776947 284.818573,257.805298 
	C280.703522,261.807953 273.908356,261.834137 269.965912,257.862579 
	C265.891113,253.757690 265.893860,246.129333 269.971619,242.012848 
	C273.936737,238.010071 281.288879,237.630127 284.651733,242.172302 
	C287.733612,246.334991 291.196350,245.424789 295.061829,245.236710 
	C293.308655,236.359619 286.926270,231.559525 275.716187,231.129074 
M425.641724,257.539276 
	C425.756287,256.131866 425.870850,254.724457 426.019409,252.899170 
	C430.833344,252.899170 435.243805,252.899170 439.614899,252.899170 
	C439.614899,250.495422 439.614899,248.562836 439.614899,246.046265 
	C434.851685,246.046265 430.299011,246.046265 425.935760,246.046265 
	C425.935760,243.362320 425.935760,241.274185 425.935760,238.739105 
	C431.121857,238.739105 436.022522,238.739105 440.783630,238.739105 
	C440.783630,236.183334 440.783630,234.106491 440.783630,232.036880 
	C432.848083,232.036880 425.218262,232.036880 417.514587,232.036880 
	C417.514587,244.086761 417.514587,255.953476 417.514587,267.702637 
	C425.766510,267.702637 433.682129,267.702637 441.475037,267.702637 
	C441.475037,265.321533 441.475037,263.266296 441.475037,260.991211 
	C436.986816,260.991211 432.828247,261.156525 428.699585,260.878052 
	C427.632690,260.806122 426.659668,259.341919 425.641724,257.539276 
M118.095215,226.501770 
	C118.095215,235.908295 118.095215,245.314835 118.095215,254.787842 
	C121.883514,254.787842 125.125679,254.787842 128.494141,254.787842 
	C128.494141,239.540863 128.494141,224.533798 128.494141,209.403839 
	C124.964439,209.403839 121.737488,209.403839 118.095215,209.403839 
	C118.095215,214.949402 118.095215,220.226089 118.095215,226.501770 
M351.314575,289.007355 
	C352.002869,289.687805 352.691132,290.368225 353.379425,291.048676 
	C354.172607,289.867462 354.965790,288.686249 355.942902,287.231140 
	C361.459137,286.521271 363.794708,284.407349 362.990723,280.466797 
	C362.215607,276.667664 358.428558,275.406738 351.309052,276.813629 
	C351.309052,280.511322 351.309052,284.309082 351.314575,289.007355 
M403.431213,285.671082 
	C402.016296,286.061218 400.620026,286.663300 399.181946,286.789520 
	C397.247528,286.959259 394.426636,287.514160 393.554047,286.523193 
	C392.562866,285.397614 392.548157,282.128815 393.517548,280.949921 
	C394.353546,279.933228 397.195099,280.294159 399.095367,280.515320 
	C400.463074,280.674469 401.740997,281.605316 403.841187,282.540131 
	C402.128021,276.990692 398.854401,275.429443 394.644226,276.165405 
	C391.005035,276.801544 388.887756,279.352142 388.678802,283.163025 
	C388.472626,286.922729 390.096832,289.899719 393.690308,290.878510 
	C397.905518,292.026611 401.666779,291.039917 403.431213,285.671082 
M372.338715,280.772430 
	C371.093079,284.017548 369.847473,287.262634 368.183685,291.597229 
	C371.281342,290.375366 373.489868,288.809631 375.686859,288.825745 
	C378.061005,288.843170 380.424316,290.338470 383.633514,291.491333 
	C381.844849,286.949127 380.596954,283.342133 378.988190,279.903961 
	C378.316498,278.468414 376.877533,277.391846 375.787476,276.152100 
	C374.760529,277.468872 373.733582,278.785675 372.338715,280.772430 
M343.300720,284.062347 
	C341.016754,282.881165 338.732788,281.699982 336.448822,280.518829 
	C336.665771,280.013702 336.882751,279.508575 337.099701,279.003448 
	C339.347839,279.656769 341.595978,280.310089 343.844116,280.963409 
	C344.124207,280.344421 344.404297,279.725464 344.684387,279.106506 
	C342.628479,278.065979 340.640350,276.427399 338.494080,276.184143 
	C336.926971,276.006500 334.162781,277.266876 333.634888,278.573914 
	C330.888947,285.372681 339.246399,283.623260 341.742859,288.583160 
	C338.115448,287.568604 335.711914,286.896362 332.882294,286.104950 
	C333.877167,291.503113 337.378693,291.693634 340.896881,290.988800 
	C344.405396,290.285889 345.236603,287.803528 343.300720,284.062347 
M427.062195,279.661163 
	C426.257202,285.546997 433.508484,283.668884 435.750183,288.701263 
	C432.106903,287.588043 429.728760,286.861389 427.350616,286.134735 
	C427.056702,286.654510 426.762787,287.174286 426.468872,287.694061 
	C428.269012,288.859772 429.994720,290.794525 431.889893,290.977936 
	C433.839813,291.166595 437.170624,290.185272 437.791412,288.783386 
	C440.777252,282.040588 432.423828,283.581055 429.688934,278.741272 
	C433.300873,279.724487 435.569855,280.342133 438.157959,281.046661 
	C436.054779,274.945251 431.639038,274.284027 427.062195,279.661163 
M420.646271,288.779480 
	C420.221802,288.556183 419.817139,288.276337 419.369354,288.119659 
	C417.626007,287.509552 415.869019,286.938538 414.117096,286.352997 
	C415.817535,285.863525 417.523834,285.392914 419.212189,284.864746 
	C419.472748,284.783234 419.650604,284.437439 420.888458,283.156769 
	C418.231873,282.495880 416.236023,281.999390 414.240143,281.502869 
	C414.097382,281.067322 413.954651,280.631744 413.811890,280.196167 
	C416.015503,279.601685 418.219147,279.007172 420.422760,278.412659 
	C420.483765,277.902710 420.544800,277.392792 420.605804,276.882874 
	C417.477814,276.569519 414.349823,276.256165 411.011169,275.921722 
	C411.011169,281.330994 411.011169,286.059357 411.011169,291.702240 
	C414.539124,290.956757 417.660370,290.297180 420.646271,288.779480 
z"/>
<path fill="#1DD0DF" opacity="1.000000" stroke="none" 
	d="
M88.513039,289.224060 
	C83.978561,288.915405 79.362297,289.861664 76.588303,285.871857 
	C75.272934,283.979980 75.025429,281.345642 74.294136,279.047668 
	C76.231384,278.493195 78.157196,277.512848 80.107925,277.460449 
	C87.268875,277.268127 94.438667,277.432343 101.603767,277.347595 
	C103.245331,277.328217 104.881485,276.851196 106.520134,276.584808 
	C106.539360,276.045929 106.558594,275.507050 106.577820,274.968170 
	C105.039902,274.660614 103.505722,274.109558 101.963440,274.085815 
	C93.300148,273.952515 84.634850,273.901886 75.970375,273.916016 
	C71.875267,273.922699 68.930771,272.137329 67.115669,268.562103 
	C64.954285,264.304779 66.117119,262.422028 70.932495,262.399292 
	C81.264786,262.350464 91.597824,262.426331 101.929611,262.339264 
	C103.534134,262.325775 105.133675,261.721527 106.735512,261.390442 
	C106.730965,260.843353 106.726410,260.296265 106.721863,259.749176 
	C105.131882,259.465149 103.543488,258.945740 101.951675,258.935059 
	C91.119675,258.862213 80.280701,259.093109 69.459190,258.748474 
	C66.969612,258.669189 63.604649,257.394348 62.275414,255.514862 
	C59.481487,251.564377 62.675182,247.164993 68.253731,247.072327 
	C79.582802,246.884094 90.916954,247.016937 102.247902,246.905273 
	C103.696320,246.891006 105.138130,246.207153 106.583000,245.833481 
	C106.505440,245.261169 106.427879,244.688843 106.350311,244.116516 
	C104.665154,243.950668 102.980606,243.648911 101.294731,243.641281 
	C91.295723,243.595963 81.296211,243.655273 71.297264,243.603867 
	C66.013779,243.576706 64.804001,241.444168 67.288620,236.748642 
	C69.218605,233.101303 72.380203,231.731171 76.372040,231.749741 
	C84.871162,231.789307 93.371239,231.809387 101.869377,231.707916 
	C103.407166,231.689560 104.937561,231.053009 106.471375,230.701843 
	C106.447762,230.158203 106.424156,229.614548 106.400551,229.070908 
	C104.789490,228.796112 103.180832,228.301590 101.566956,228.283936 
	C93.901810,228.200058 86.234856,228.292145 78.569321,228.228424 
	C74.061424,228.190948 73.264336,226.940048 74.852562,222.745636 
	C76.403091,218.650818 79.539192,216.831696 83.755882,216.784622 
	C89.921310,216.715759 96.091408,216.867477 102.251495,216.672134 
	C103.631889,216.628357 104.979073,215.537186 106.341545,214.928207 
	C105.039352,214.300720 103.769798,213.230865 102.428604,213.131882 
	C98.947815,212.874969 95.432785,212.958435 91.936539,213.068619 
	C88.249817,213.184814 87.703957,211.465118 88.705498,208.345276 
	C89.877632,204.693985 91.999992,202.035126 95.949760,201.747086 
	C100.082428,201.445724 104.254898,201.532883 108.400085,201.698135 
	C109.193382,201.729767 109.940781,202.913040 110.709351,203.565002 
	C109.830795,204.122879 108.988823,205.082428 108.067093,205.166412 
	C104.759308,205.467758 101.401230,205.277603 98.109535,205.670334 
	C96.391594,205.875290 94.772560,206.909210 93.108849,207.568726 
	C93.226242,208.030991 93.343636,208.493256 93.461029,208.955521 
	C97.035965,208.955521 100.611382,208.991974 104.185722,208.945831 
	C108.188782,208.894165 110.718025,210.753464 110.718887,214.789200 
	C110.719734,218.769867 108.173691,220.808167 104.261360,220.862167 
	C97.929718,220.949554 91.592155,220.768906 85.265579,220.969223 
	C83.227150,221.033768 81.215416,221.941391 79.191467,222.463318 
	C79.284691,223.010498 79.377914,223.557663 79.471138,224.104843 
	C87.194046,224.104843 94.916992,224.090149 102.639847,224.109909 
	C107.963470,224.123520 110.745148,226.165375 110.794395,230.028000 
	C110.842567,233.807541 108.007645,235.871170 102.602295,235.889343 
	C94.103058,235.917908 85.601395,235.792435 77.105980,235.975006 
	C75.096039,236.018204 73.106850,237.026581 71.108109,237.590973 
	C71.226509,238.095581 71.344910,238.600204 71.463310,239.104813 
	C81.072815,239.104813 90.682327,239.097229 100.291801,239.112076 
	C101.954865,239.114639 103.642113,239.051743 105.275696,239.299423 
	C108.678696,239.815353 110.867561,241.882874 110.712189,245.349045 
	C110.548668,248.997360 108.328865,251.050354 104.489723,251.046814 
	C93.323944,251.036499 82.157883,251.005920 70.992653,251.085007 
	C69.214256,251.097595 67.439583,251.635208 65.663185,251.930084 
	C65.668869,252.506363 65.674553,253.082642 65.680237,253.658936 
	C67.275085,253.900635 68.868790,254.342697 70.464966,254.351776 
	C81.463745,254.414413 92.464104,254.295959 103.461739,254.424927 
	C109.253677,254.492828 112.836807,259.513519 109.811066,263.504333 
	C108.487793,265.249664 105.384819,266.388306 103.037415,266.481842 
	C94.385162,266.826538 85.710907,266.618835 77.044922,266.618896 
	C75.409813,266.618927 73.774712,266.618896 72.139603,266.618896 
	C72.005814,267.137909 71.872017,267.656921 71.738228,268.175934 
	C73.640617,268.702332 75.534851,269.645874 77.446800,269.683228 
	C85.942886,269.849335 94.445152,269.836578 102.942924,269.721771 
	C107.131416,269.665222 110.308731,270.821686 110.744873,275.469849 
	C111.108681,279.347076 108.157219,281.564880 102.816307,281.604034 
	C95.019028,281.661133 87.221016,281.618683 79.423317,281.618683 
	C79.304062,282.132599 79.184814,282.646515 79.065559,283.160400 
	C81.068321,283.758270 83.054779,284.796875 85.076897,284.871704 
	C91.234680,285.099548 97.406433,284.987701 103.572319,284.945038 
	C107.645432,284.916870 110.612968,286.532440 110.706146,290.834106 
	C110.802567,295.285095 107.697075,296.731781 103.676842,296.710846 
	C100.177216,296.692596 96.657761,296.925934 93.186226,296.613312 
	C91.522751,296.463531 89.949844,295.308044 88.335930,294.608032 
	C89.883163,293.990692 91.395248,292.981567 92.985069,292.838928 
	C96.126244,292.557159 99.317207,292.875305 102.473709,292.698181 
	C103.833588,292.621887 105.158951,291.930573 106.500000,291.518646 
	C106.442184,290.759399 106.384377,290.000153 106.326561,289.240906 
	C100.539383,289.240906 94.752197,289.240906 88.513039,289.224060 
z"/>
<path fill="#FFFFFF" opacity="1.000000" stroke="none" 
	d="
M284.000092,204.833313 
	C322.446716,204.833313 360.393341,204.833313 398.680847,204.833313 
	C398.680847,208.802826 398.680847,212.694214 398.680847,216.880768 
	C353.064087,216.880768 307.369537,216.880768 261.334015,216.880768 
	C261.334015,213.197052 261.334015,209.305695 261.334015,204.833313 
	C268.666412,204.833313 276.083221,204.833313 284.000092,204.833313 
z"/>
<path fill="#FFFFFF" opacity="1.000000" stroke="none" 
	d="
M188.000092,277.833344 
	C209.136398,277.833344 229.772690,277.833344 250.703918,277.833344 
	C250.703918,281.105530 250.703918,284.204926 250.703918,287.672333 
	C207.762268,287.672333 164.591080,287.672333 121.208069,287.672333 
	C121.208069,284.576660 121.208069,281.487976 121.208069,277.833344 
	C143.339905,277.833344 165.419998,277.833344 188.000092,277.833344 
z"/>
<path fill="#F8F8F8" opacity="1.000000" stroke="none" 
	d="
M169.791870,236.407623 
	C170.203842,237.346085 170.476517,237.894485 171.213470,239.376694 
	C174.380386,230.899963 177.632172,223.375748 179.951614,215.574341 
	C181.506363,210.344986 184.090057,208.154892 189.418442,209.114273 
	C190.535431,209.315384 191.719559,209.143509 193.272125,209.143509 
	C192.965134,210.476791 192.844711,211.569138 192.465103,212.562408 
	C187.488373,225.584061 182.287018,238.524399 177.588638,251.645065 
	C176.228424,255.443634 173.827744,255.062012 171.028412,255.025482 
	C168.279831,254.989624 165.818085,255.555786 164.433838,251.700134 
	C159.394714,237.664215 153.865997,223.804047 148.240173,209.143509 
	C150.910049,209.143509 153.005859,209.354156 155.042191,209.095840 
	C158.381882,208.672211 160.016006,209.832428 161.123917,213.167542 
	C163.685211,220.877762 166.776321,228.411972 169.791870,236.407623 
z"/>
<path fill="#F6F6F6" opacity="1.000000" stroke="none" 
	d="
M240.957367,209.322449 
	C244.783401,209.195023 248.217041,209.195023 252.450104,209.195023 
	C248.132523,216.812103 244.385574,223.987045 240.090637,230.817429 
	C236.775360,236.089767 234.968643,241.478149 235.687515,247.719315 
	C235.948303,249.983444 235.729462,252.302811 235.729462,254.796021 
	C232.029816,254.796021 228.785248,254.796021 224.590042,254.796021 
	C229.329453,236.265411 214.781433,224.570831 208.706192,209.139069 
	C210.579727,209.139069 212.033691,209.331055 213.419174,209.104477 
	C218.342773,208.299301 221.380753,210.025940 223.325089,214.834122 
	C225.102127,219.228607 227.834442,223.236801 230.395248,227.866241 
	C233.995148,221.347168 237.280060,215.398514 240.957367,209.322449 
z"/>
<path fill="#F6F6F6" opacity="1.000000" stroke="none" 
	d="
M321.967346,232.744659 
	C335.614319,228.757538 346.805084,234.178177 349.061768,245.527313 
	C351.088348,255.719513 346.054840,264.926300 336.893555,267.784149 
	C326.811768,270.929138 316.182861,266.583710 312.464386,257.796753 
	C308.389923,248.168472 312.104950,238.065765 321.967346,232.744659 
M340.992157,251.173416 
	C340.800079,243.383545 336.994080,239.049362 330.305298,239.003433 
	C324.117798,238.960953 319.649017,243.278137 319.409790,249.529373 
	C319.185883,255.380066 322.791351,259.831604 328.507263,260.761719 
	C334.395660,261.719910 338.662109,258.704559 340.992157,251.173416 
z"/>
<path fill="#FAFAFA" opacity="1.000000" stroke="none" 
	d="
M366.861511,245.005920 
	C366.861511,240.524597 366.861511,236.542480 366.861511,232.520157 
	C373.551880,232.520157 380.246521,231.647781 386.610626,232.726105 
	C395.985901,234.314651 400.738892,241.933212 400.025208,251.890671 
	C399.400879,260.601013 392.949982,267.167877 383.797729,267.824371 
	C378.364166,268.214111 372.879822,267.895721 366.861511,267.895721 
	C366.861511,260.331482 366.861511,252.918304 366.861511,245.005920 
M375.566650,260.176117 
	C386.719543,260.845032 391.872833,257.527954 391.738159,249.766800 
	C391.609192,242.336365 386.596222,239.024445 376.204895,239.531830 
	C375.918243,239.545837 375.644409,239.822784 375.075073,240.136810 
	C375.075073,246.435669 375.075073,252.886963 375.566650,260.176117 
z"/>
<path fill="#F6F6F6" opacity="1.000000" stroke="none" 
	d="
M276.145844,231.105316 
	C286.926270,231.559525 293.308655,236.359619 295.061829,245.236710 
	C291.196350,245.424789 287.733612,246.334991 284.651733,242.172302 
	C281.288879,237.630127 273.936737,238.010071 269.971619,242.012848 
	C265.893860,246.129333 265.891113,253.757690 269.965912,257.862579 
	C273.908356,261.834137 280.703522,261.807953 284.818573,257.805298 
	C288.960052,253.776947 288.960052,253.776947 295.438263,254.352768 
	C293.749817,263.196899 286.273865,269.026855 276.886597,268.819855 
	C267.154938,268.605255 260.075836,262.428955 258.738495,252.986267 
	C257.356140,243.225647 262.248016,234.723434 270.842773,232.087936 
	C272.417206,231.605148 274.089203,231.440552 276.145844,231.105316 
z"/>
<path fill="#F4F4F4" opacity="1.000000" stroke="none" 
	d="
M425.642639,258.028259 
	C426.659668,259.341919 427.632690,260.806122 428.699585,260.878052 
	C432.828247,261.156525 436.986816,260.991211 441.475037,260.991211 
	C441.475037,263.266296 441.475037,265.321533 441.475037,267.702637 
	C433.682129,267.702637 425.766510,267.702637 417.514587,267.702637 
	C417.514587,255.953476 417.514587,244.086761 417.514587,232.036880 
	C425.218262,232.036880 432.848083,232.036880 440.783630,232.036880 
	C440.783630,234.106491 440.783630,236.183334 440.783630,238.739105 
	C436.022522,238.739105 431.121857,238.739105 425.935760,238.739105 
	C425.935760,241.274185 425.935760,243.362320 425.935760,246.046265 
	C430.299011,246.046265 434.851685,246.046265 439.614899,246.046265 
	C439.614899,248.562836 439.614899,250.495422 439.614899,252.899170 
	C435.243805,252.899170 430.833344,252.899170 426.019409,252.899170 
	C425.870850,254.724457 425.756287,256.131866 425.642639,258.028259 
z"/>
<path fill="#F1F1F1" opacity="1.000000" stroke="none" 
	d="
M118.095215,226.002274 
	C118.095215,220.226089 118.095215,214.949402 118.095215,209.403839 
	C121.737488,209.403839 124.964439,209.403839 128.494141,209.403839 
	C128.494141,224.533798 128.494141,239.540863 128.494141,254.787842 
	C125.125679,254.787842 121.883514,254.787842 118.095215,254.787842 
	C118.095215,245.314835 118.095215,235.908295 118.095215,226.002274 
z"/>
<path fill="#DFDFDF" opacity="1.000000" stroke="none" 
	d="
M351.311829,288.557068 
	C351.309052,284.309082 351.309052,280.511322 351.309052,276.813629 
	C358.428558,275.406738 362.215607,276.667664 362.990723,280.466797 
	C363.794708,284.407349 361.459137,286.521271 355.942902,287.231140 
	C354.965790,288.686249 354.172607,289.867462 353.379425,291.048676 
	C352.691132,290.368225 352.002869,289.687805 351.311829,288.557068 
z"/>
<path fill="#E8E8E8" opacity="1.000000" stroke="none" 
	d="
M403.440125,286.017395 
	C401.666779,291.039917 397.905518,292.026611 393.690308,290.878510 
	C390.096832,289.899719 388.472626,286.922729 388.678802,283.163025 
	C388.887756,279.352142 391.005035,276.801544 394.644226,276.165405 
	C398.854401,275.429443 402.128021,276.990692 403.841187,282.540131 
	C401.740997,281.605316 400.463074,280.674469 399.095367,280.515320 
	C397.195099,280.294159 394.353546,279.933228 393.517548,280.949921 
	C392.548157,282.128815 392.562866,285.397614 393.554047,286.523193 
	C394.426636,287.514160 397.247528,286.959259 399.181946,286.789520 
	C400.620026,286.663300 402.016296,286.061218 403.440125,286.017395 
z"/>
<path fill="#E8E8E8" opacity="1.000000" stroke="none" 
	d="
M372.522675,280.437439 
	C373.733582,278.785675 374.760529,277.468872 375.787476,276.152100 
	C376.877533,277.391846 378.316498,278.468414 378.988190,279.903961 
	C380.596954,283.342133 381.844849,286.949127 383.633514,291.491333 
	C380.424316,290.338470 378.061005,288.843170 375.686859,288.825745 
	C373.489868,288.809631 371.281342,290.375366 368.183685,291.597229 
	C369.847473,287.262634 371.093079,284.017548 372.522675,280.437439 
z"/>
<path fill="#E5E5E5" opacity="1.000000" stroke="none" 
	d="
M343.558472,284.316437 
	C345.236603,287.803528 344.405396,290.285889 340.896881,290.988800 
	C337.378693,291.693634 333.877167,291.503113 332.882294,286.104950 
	C335.711914,286.896362 338.115448,287.568604 341.742859,288.583160 
	C339.246399,283.623260 330.888947,285.372681 333.634888,278.573914 
	C334.162781,277.266876 336.926971,276.006500 338.494080,276.184143 
	C340.640350,276.427399 342.628479,278.065979 344.684387,279.106506 
	C344.404297,279.725464 344.124207,280.344421 343.844116,280.963409 
	C341.595978,280.310089 339.347839,279.656769 337.099701,279.003448 
	C336.882751,279.508575 336.665771,280.013702 336.448822,280.518829 
	C338.732788,281.699982 341.016754,282.881165 343.558472,284.316437 
z"/>
<path fill="#E5E5E5" opacity="1.000000" stroke="none" 
	d="
M427.150818,279.280273 
	C431.639038,274.284027 436.054779,274.945251 438.157959,281.046661 
	C435.569855,280.342133 433.300873,279.724487 429.688934,278.741272 
	C432.423828,283.581055 440.777252,282.040588 437.791412,288.783386 
	C437.170624,290.185272 433.839813,291.166595 431.889893,290.977936 
	C429.994720,290.794525 428.269012,288.859772 426.468872,287.694061 
	C426.762787,287.174286 427.056702,286.654510 427.350616,286.134735 
	C429.728760,286.861389 432.106903,287.588043 435.750183,288.701263 
	C433.508484,283.668884 426.257202,285.546997 427.150818,279.280273 
z"/>
<path fill="#F1F1F1" opacity="1.000000" stroke="none" 
	d="
M420.713959,289.208557 
	C417.660370,290.297180 414.539124,290.956757 411.011169,291.702240 
	C411.011169,286.059357 411.011169,281.330994 411.011169,275.921722 
	C414.349823,276.256165 417.477814,276.569519 420.605804,276.882874 
	C420.544800,277.392792 420.483765,277.902710 420.422760,278.412659 
	C418.219147,279.007172 416.015503,279.601685 413.811890,280.196167 
	C413.954651,280.631744 414.097382,281.067322 414.240143,281.502869 
	C416.236023,281.999390 418.231873,282.495880 420.888458,283.156769 
	C419.650604,284.437439 419.472748,284.783234 419.212189,284.864746 
	C417.523834,285.392914 415.817535,285.863525 414.117096,286.352966 
	C415.869019,286.938538 417.626007,287.509552 419.369354,288.119659 
	C419.817139,288.276337 420.221802,288.556183 420.713959,289.208557 
z"/>
<path fill="#060606" opacity="1.000000" stroke="none" 
	d="
M340.957703,251.580048 
	C338.662109,258.704559 334.395660,261.719910 328.507263,260.761719 
	C322.791351,259.831604 319.185883,255.380066 319.409790,249.529373 
	C319.649017,243.278137 324.117798,238.960953 330.305298,239.003433 
	C336.994080,239.049362 340.800079,243.383545 340.957703,251.580048 
z"/>
<path fill="#080808" opacity="1.000000" stroke="none" 
	d="
M375.320862,259.757202 
	C375.075073,252.886963 375.075073,246.435669 375.075073,240.136810 
	C375.644409,239.822784 375.918243,239.545837 376.204895,239.531830 
	C386.596222,239.024445 391.609192,242.336365 391.738159,249.766800 
	C391.872833,257.527954 386.719543,260.845032 375.320862,259.757202 
z"/>
</svg>