<svg width="20" height="20" viewBox="0 0 20 21" fill="none" xmlns="http://www.w3.org/2000/svg">
<path d="M18.3084 15.7748C18.3084 16.0748 18.2418 16.3832 18.1001 16.6832C17.9584 16.9832 17.7751 17.2665 17.5334 17.5332C17.1251 17.9832 16.6751 18.3082 16.1668 18.5165C15.6668 18.7248 15.1251 18.8332 14.5418 18.8332C13.6918 18.8332 12.7834 18.6332 11.8251 18.2248C10.8668 17.8165 9.90845 17.2665 8.95845 16.5748C8.00011 15.8748 7.09178 15.0998 6.22511 14.2415C5.36678 13.3748 4.59178 12.4665 3.90011 11.5165C3.21678 10.5665 2.66678 9.6165 2.26678 8.67484C1.86678 7.72484 1.66678 6.8165 1.66678 5.94984C1.66678 5.38317 1.76678 4.8415 1.96678 4.3415C2.16678 3.83317 2.48345 3.3665 2.92511 2.94984C3.45845 2.42484 4.04178 2.1665 4.65845 2.1665C4.89178 2.1665 5.12511 2.2165 5.33345 2.3165C5.55011 2.4165 5.74178 2.5665 5.89178 2.78317L7.82511 5.50817C7.97511 5.7165 8.08345 5.90817 8.15845 6.0915C8.23345 6.2665 8.27511 6.4415 8.27511 6.59984C8.27511 6.79984 8.21678 6.99984 8.10011 7.1915C7.99178 7.38317 7.83345 7.58317 7.63345 7.78317L7.00011 8.4415C6.90845 8.53317 6.86678 8.6415 6.86678 8.77484C6.86678 8.8415 6.87511 8.89984 6.89178 8.9665C6.91678 9.03317 6.94178 9.08317 6.95845 9.13317C7.10845 9.40817 7.36678 9.7665 7.73345 10.1998C8.10845 10.6332 8.50845 11.0748 8.94178 11.5165C9.39178 11.9582 9.82511 12.3665 10.2668 12.7415C10.7001 13.1082 11.0584 13.3582 11.3418 13.5082C11.3834 13.5248 11.4334 13.5498 11.4918 13.5748C11.5584 13.5998 11.6251 13.6082 11.7001 13.6082C11.8418 13.6082 11.9501 13.5582 12.0418 13.4665L12.6751 12.8415C12.8834 12.6332 13.0834 12.4748 13.2751 12.3748C13.4668 12.2582 13.6584 12.1998 13.8668 12.1998C14.0251 12.1998 14.1918 12.2332 14.3751 12.3082C14.5584 12.3832 14.7501 12.4915 14.9584 12.6332L17.7168 14.5915C17.9334 14.7415 18.0834 14.9165 18.1751 15.1248C18.2584 15.3332 18.3084 15.5415 18.3084 15.7748Z" stroke="white" stroke-width="1.5" stroke-miterlimit="10"/>
</svg>
