<svg width="24" height="25" viewBox="0 0 24 25" fill="none" xmlns="http://www.w3.org/2000/svg">
<g clip-path="url(#clip0_185_60)">
<path d="M26.2344 -3.6416H-2.23439C-3.20951 -3.6416 -4 -2.85111 -4 -1.87599V26.5928C-4 27.5679 -3.20951 28.3584 -2.23439 28.3584H26.2344C27.2095 28.3584 28 27.5679 28 26.5928V-1.87599C28 -2.85111 27.2095 -3.6416 26.2344 -3.6416Z" fill="#3D5A98"/>
<path d="M16.215 23.4527V14.8596H19.0987L19.53 11.5108H16.215V9.37332C16.215 8.40394 16.485 7.74207 17.8743 7.74207H19.6481V4.74207C18.7892 4.65272 17.926 4.61015 17.0625 4.61457C14.5087 4.61457 12.75 6.17082 12.75 9.04144V11.5108H9.86621V14.8596H12.75V23.4527H16.215Z" fill="white"/>
</g>
<defs>
<clipPath id="clip0_185_60">
<rect width="24" height="24" fill="white" transform="translate(0 0.358398)"/>
</clipPath>
</defs>
</svg>
