<svg width="24" height="25" viewBox="0 0 24 25" fill="none" xmlns="http://www.w3.org/2000/svg">
<g clip-path="url(#clip0_185_55)">
<path d="M18.375 0.358398H5.625C2.5184 0.358398 0 2.8768 0 5.9834V18.7334C0 21.84 2.5184 24.3584 5.625 24.3584H18.375C21.4816 24.3584 24 21.84 24 18.7334V5.9834C24 2.8768 21.4816 0.358398 18.375 0.358398Z" fill="url(#paint0_radial_185_55)"/>
<path d="M18.375 0.358398H5.625C2.5184 0.358398 0 2.8768 0 5.9834V18.7334C0 21.84 2.5184 24.3584 5.625 24.3584H18.375C21.4816 24.3584 24 21.84 24 18.7334V5.9834C24 2.8768 21.4816 0.358398 18.375 0.358398Z" fill="url(#paint1_radial_185_55)"/>
<path d="M12.0008 2.9834C9.45478 2.9834 9.13519 2.99455 8.13525 3.04002C7.13719 3.08577 6.45591 3.24374 5.85984 3.47559C5.24316 3.71502 4.72013 4.03537 4.19906 4.55662C3.67753 5.07777 3.35719 5.6008 3.117 6.21721C2.8845 6.81346 2.72634 7.49502 2.68144 8.49262C2.63672 9.49265 2.625 9.81234 2.625 12.3585C2.625 14.9046 2.63625 15.2232 2.68163 16.2231C2.72756 17.2212 2.88553 17.9025 3.11719 18.4986C3.35681 19.1152 3.67716 19.6383 4.19841 20.1593C4.71938 20.6809 5.24241 21.002 5.85862 21.2414C6.45516 21.4732 7.13653 21.6312 8.13441 21.677C9.13444 21.7224 9.45375 21.7336 11.9997 21.7336C14.5461 21.7336 14.8646 21.7224 15.8646 21.677C16.8626 21.6312 17.5447 21.4732 18.1412 21.2414C18.7576 21.002 19.2799 20.6809 19.8007 20.1593C20.3223 19.6383 20.6425 19.1152 20.8828 18.4988C21.1133 17.9025 21.2715 17.221 21.3184 16.2233C21.3633 15.2234 21.375 14.9046 21.375 12.3585C21.375 9.81234 21.3633 9.49284 21.3184 8.4928C21.2715 7.49474 21.1133 6.81355 20.8828 6.21749C20.6425 5.6008 20.3223 5.07777 19.8007 4.55662C19.2793 4.03518 18.7578 3.71484 18.1406 3.47568C17.543 3.24374 16.8613 3.08568 15.8632 3.04002C14.8632 2.99455 14.5448 2.9834 11.9979 2.9834H12.0008ZM11.1598 4.67287C11.4095 4.67249 11.688 4.67287 12.0008 4.67287C14.5041 4.67287 14.8007 4.68187 15.7892 4.72677C16.7032 4.76859 17.1994 4.9213 17.5298 5.04965C17.9674 5.21952 18.2793 5.42268 18.6072 5.7509C18.9353 6.07902 19.1384 6.39149 19.3088 6.82902C19.4371 7.15902 19.59 7.65515 19.6316 8.56921C19.6765 9.55752 19.6863 9.85434 19.6863 12.3563C19.6863 14.8583 19.6765 15.1552 19.6316 16.1435C19.5898 17.0575 19.4371 17.5536 19.3088 17.8837C19.1389 18.3213 18.9353 18.6328 18.6072 18.9607C18.2791 19.2889 17.9676 19.4919 17.5298 19.6619C17.1997 19.7908 16.7032 19.9431 15.7892 19.985C14.8009 20.0299 14.5041 20.0396 12.0008 20.0396C9.49753 20.0396 9.20081 20.0299 8.21259 19.985C7.29853 19.9428 6.80241 19.7901 6.47166 19.6617C6.03422 19.4917 5.72166 19.2887 5.39353 18.9606C5.06541 18.6324 4.86234 18.3207 4.692 17.883C4.56366 17.5529 4.41075 17.0568 4.36913 16.1427C4.32422 15.1544 4.31522 14.8576 4.31522 12.354C4.31522 9.85049 4.32422 9.55518 4.36913 8.56687C4.41094 7.6528 4.56366 7.15668 4.692 6.82621C4.86197 6.38868 5.06541 6.07621 5.39363 5.74809C5.72175 5.41996 6.03422 5.2168 6.47175 5.04655C6.80222 4.91765 7.29853 4.7653 8.21259 4.7233C9.07744 4.68421 9.41259 4.67249 11.1598 4.67052V4.67287ZM17.0052 6.22949C16.3841 6.22949 15.8802 6.73293 15.8802 7.35412C15.8802 7.97521 16.3841 8.47912 17.0052 8.47912C17.6263 8.47912 18.1302 7.97521 18.1302 7.35412C18.1302 6.73302 17.6263 6.22912 17.0052 6.22912V6.22949ZM12.0008 7.54396C9.34209 7.54396 7.18641 9.69965 7.18641 12.3585C7.18641 15.0173 9.34209 17.172 12.0008 17.172C14.6597 17.172 16.8146 15.0173 16.8146 12.3585C16.8146 9.69974 14.6595 7.54396 12.0007 7.54396H12.0008ZM12.0008 9.23343C13.7267 9.23343 15.1259 10.6325 15.1259 12.3585C15.1259 14.0843 13.7267 15.4836 12.0008 15.4836C10.2749 15.4836 8.87588 14.0843 8.87588 12.3585C8.87588 10.6325 10.2749 9.23343 12.0008 9.23343Z" fill="white"/>
</g>
<defs>
<radialGradient id="paint0_radial_185_55" cx="0" cy="0" r="1" gradientUnits="userSpaceOnUse" gradientTransform="translate(6.375 26.2069) rotate(-90) scale(23.7858 22.1227)">
<stop stop-color="#FFDD55"/>
<stop offset="0.1" stop-color="#FFDD55"/>
<stop offset="0.5" stop-color="#FF543E"/>
<stop offset="1" stop-color="#C837AB"/>
</radialGradient>
<radialGradient id="paint1_radial_185_55" cx="0" cy="0" r="1" gradientUnits="userSpaceOnUse" gradientTransform="translate(-4.02009 2.08724) rotate(78.681) scale(10.6324 43.827)">
<stop stop-color="#3771C8"/>
<stop offset="0.128" stop-color="#3771C8"/>
<stop offset="1" stop-color="#6600FF" stop-opacity="0"/>
</radialGradient>
<clipPath id="clip0_185_55">
<rect width="24" height="24" fill="white" transform="translate(0 0.358398)"/>
</clipPath>
</defs>
</svg>
